<svg xmlns="http://www.w3.org/2000/svg" viewBox="0 0 64 64" fill="none">
  <defs>
    <!-- Gradiente principal verde a azul turquesa -->
    <linearGradient id="faviconGradient" x1="0%" y1="0%" x2="100%" y2="100%">
      <stop offset="0%" style="stop-color:#00C853;stop-opacity:1" />
      <stop offset="100%" style="stop-color:#00BCD4;stop-opacity:1" />
    </linearGradient>
  </defs>

  <!-- Fondo circular suave -->
  <circle cx="32" cy="32" r="30" fill="url(#faviconGradient)"/>

  <!-- Etiqueta de precio simplificada -->
  <g transform="translate(32, 32)">
    <!-- Forma de tag simplificada -->
    <path d="M -14 -10 L 10 -10 L 16 0 L 10 10 L -14 10 L -14 -10 Z"
          fill="white"
          opacity="0.95"/>

    <!-- Agujero de la etiqueta -->
    <circle cx="-9" cy="0" r="2.5" fill="url(#faviconGradient)"/>

    <!-- Símbolo de dólar -->
    <g transform="translate(2, 0)">
      <path d="M 0 -7 L 0 7"
            stroke="url(#faviconGradient)"
            stroke-width="2.5"
            stroke-linecap="round"/>
      <path d="M -3 -4 C -3 -5.5, -1.5 -6, 0 -6 C 1.5 -6, 3 -5.5, 3 -4 C 3 -2.5, 1.5 -1.5, 0 -1.5"
            stroke="url(#faviconGradient)"
            stroke-width="2.5"
            fill="none"
            stroke-linecap="round"/>
      <path d="M 3 4 C 3 5.5, 1.5 6, 0 6 C -1.5 6, -3 5.5, -3 4 C -3 2.5, -1.5 1.5, 0 1.5"
            stroke="url(#faviconGradient)"
            stroke-width="2.5"
            fill="none"
            stroke-linecap="round"/>
    </g>
  </g>

  <!-- Indicador de comparación: mini barra -->
  <rect x="8" y="48" width="3" height="8" rx="1.5" fill="white" opacity="0.7"/>
  <rect x="13" y="44" width="3" height="12" rx="1.5" fill="white" opacity="0.8"/>

  <rect x="48" y="44" width="3" height="12" rx="1.5" fill="white" opacity="0.8"/>
  <rect x="53" y="48" width="3" height="8" rx="1.5" fill="white" opacity="0.7"/>
</svg>
